<?xml version="1.0" encoding="utf-8"?>
<svg version="1.1" xmlns:xlink="http://www.w3.org/1999/xlink" width="25px" height="23px" xmlns="http://www.w3.org/2000/svg">
  <g transform="matrix(1 0 0 1 -56 -332 )">
    <path d="M 2.03399999999988 12.4292000041294  L 2.04862500878903 12.4130999861669  C 0.911999180935652 11.0581422996395  0.287193074327377 9.33215190492841  0.287193074327377 7.5472470957042  C 0.287193074327377 3.41891859729355  3.56111083725466 0.0722471076086195  7.59969306553813 0.0722471076086195  C 8.55640963281246 0.0722471076086195  9.50382830832979 0.264157188104908  10.3882500087892 0.637100008735615  L 10.3859999912109 0.637100008735615  L 5.61374999121085 5.51769999784474  L 7.2045 7.1438000061938  L 11.97675 2.26550000809937  C 13.3481493157637 0.863472641022125  15.2082554922089 0.0758090457548203  17.1478125043944 0.0758090457548203  C 21.1864438829988 0.0758090457548203  24.4604014901336 3.42252126507402  24.4604014901336 7.55090000603467  C 24.4604014901336 9.53327649988224  23.690079414983 11.4344718994619  22.3188750087891 12.83630000397  L 12.3750000000001 23  L 2.03399999999988 12.4292000041294  Z " fill-rule="nonzero" fill="#ffffff" stroke="none" transform="matrix(1 0 0 1 56 332 )" />
  </g>
</svg>