<?xml version="1.0" encoding="utf-8"?>
<svg version="1.1" xmlns:xlink="http://www.w3.org/1999/xlink" width="28px" height="24px" xmlns="http://www.w3.org/2000/svg">
  <g transform="matrix(1 0 0 1 -34 -41 )">
    <path d="M 13.8 12  C 10.4862914984264 12  7.7999999953125 9.31370849898477  7.7999999953125 6  C 7.7999999953125 2.68629150101523  10.4862914984264 0  13.8 0  C 17.1137085015736 0  19.8000000046875 2.68629150101523  19.8000000046875 6  C 19.8000000046875 9.31370849898477  17.1137085015736 12  13.8 12  Z M 27.330000009375 8.16479999362124  C 23.4741683194255 9.91855554774713  20.9991691568321 13.7640708256097  21 17.9999999859375  L 21 24  L 18.600000009375 24  L 18.600000009375 17.9999999859375  C 18.600000009375 12.6587999994853  21.77280001875 8.05800000307968  26.336400009375 5.9808000047025  L 27.330000009375 8.16479999362124  Z M 1.263599990625 5.9808000047025  C 5.97574324419091 8.12401183464192  9.00057023134296 12.8233552588725  8.999999990625 17.9999999859375  L 8.999999990625 24  L 6.6 24  L 6.6 17.9999999859375  C 6.60036027837336 13.764505395711  4.12543601492087 9.91957567556426  0.269999990625003 8.1660000029953  L 1.263599990625 5.9808000047025  Z " fill-rule="nonzero" fill="#ffffff" stroke="none" transform="matrix(1 0 0 1 34 41 )" />
  </g>
</svg>