<?xml version="1.0" encoding="utf-8"?>
<svg version="1.1" xmlns:xlink="http://www.w3.org/1999/xlink" width="25px" height="24px" xmlns="http://www.w3.org/2000/svg">
  <g transform="matrix(1 0 0 1 -176 -400 )">
    <path d="M 12.5999999951982 23.9999974284867  C 8.74884126062574 24.0025164966356  5.1311032841972 22.1541352043187  2.87639999890382 19.0319979646711  L 7.56840000649069 14.3399984616927  L 10.9632000051969 17.7335980860543  L 16.4483999937316 12.2495986966796  L 18.5999999835366 14.3999984458419  L 18.5999999835366 8.39999910278287  L 12.5999999951982 8.39999910278287  L 14.7515999850032 10.5515988611907  L 10.9632000051969 14.3399984616927  L 7.56959998774022 10.9451988280854  L 1.63439999937717 16.8803981781382  C 0.950314344363647 15.3444151623584  0.597844932189474 13.6814303254683  0.599999990396327 11.9999987142433  C 0.599999990396327 5.37239942954464  5.97239999772393 0  12.5999999951982 0  C 19.2275999926724 0  24.6 5.37239942954464  24.6 11.9999987142433  C 24.6 18.627597998942  19.2275999926724 23.9999974284867  12.5999999951982 23.9999974284867  Z " fill-rule="nonzero" fill="#ffffff" stroke="none" transform="matrix(1 0 0 1 176 400 )" />
  </g>
</svg>