<?xml version="1.0" encoding="utf-8"?>
<svg version="1.1" xmlns:xlink="http://www.w3.org/1999/xlink" width="22px" height="22px" xmlns="http://www.w3.org/2000/svg">
  <g transform="matrix(1 0 0 1 -295 -402 )">
    <path d="M 22 18.7000000025781  C 22 20.5225396755959  20.5225396755959 22  18.7000000025781 22  L 3.29999999742188 22  C 1.47746032440411 22  0 20.5225396755959  0 18.7000000025781  L 0 1.10000000773442  C 0 0.492486778648981  0.492486778648917 0  1.10000000773437 0  L 16.4999999871094 0  C 17.1075132161948 0  17.5999999948438 0.492486778648981  17.5999999948438 1.10000000773442  L 17.5999999948438 8.80000001031243  L 22 8.80000001031243  L 22 18.7000000025781  Z M 19.7999999845313 11  L 17.5999999948438 11  L 17.5999999948438 18.7000000025781  C 17.600092990859 19.3074474603551  18.092552524792 19.7998316079016  18.6999999896875 19.7998316079016  C 19.307447454583 19.7998316079016  19.799906988516 19.3074474603551  19.7999999845313 18.7000000025781  L 19.7999999845313 11  Z M 9.89999999226563 4.4000000051563  L 3.29999999742188 4.4000000051563  L 3.29999999742188 11  L 9.89999999226563 11  L 9.89999999226563 4.4000000051563  Z M 14.2999999974219 12  L 3.29999999742188 12  L 3.29999999742188 14  L 14.2999999974219 14  L 14.2999999974219 12  Z M 14.2999999974219 15  L 3.29999999742188 15  L 3.29999999742188 17.5999999948437  L 14.2999999974219 17.5999999948437  L 14.2999999974219 15  Z M 5.50000001289062 8.80000001031243  L 5.50000001289062 6.5999999948437  L 7.70000000257812 6.5999999948437  L 7.70000000257812 8.80000001031243  L 5.50000001289062 8.80000001031243  Z " fill-rule="nonzero" fill="#ffffff" stroke="none" transform="matrix(1 0 0 1 295 402 )" />
  </g>
</svg>