<?xml version="1.0" encoding="utf-8"?>
<svg version="1.1" xmlns:xlink="http://www.w3.org/1999/xlink" width="20px" height="30px" xmlns="http://www.w3.org/2000/svg">
  <g transform="matrix(1 0 0 1 -58 -448 )">
    <path d="M 11.81640625 20.6584821428571  C 12.2721354166667 21.2165178571429  12.5 21.8303571428571  12.5 22.5  C 12.5 23.3928571428571  12.1354166666667 24.1517857142857  11.40625 24.7767857142857  C 10.6770833333333 25.4017857142857  9.79166666666667 25.7142857142857  8.75 25.7142857142857  C 7.70833333333333 25.7142857142857  6.82291666666667 25.4017857142857  6.09375 24.7767857142857  C 5.36458333333333 24.1517857142857  5 23.3928571428571  5 22.5  C 5 21.8303571428571  5.22786458333333 21.2165178571429  5.68359375 20.6584821428571  C 6.13932291666667 20.1004464285714  6.74479166666667 19.7042410714286  7.5 19.4698660714286  L 7.5 12.8571428571429  L 10 12.8571428571429  L 10 19.4698660714286  C 10.7552083333333 19.7042410714286  11.3606770833333 20.1004464285714  11.81640625 20.6584821428571  Z M 13.173828125 26.2918526785714  C 14.3912760416667 25.2483258928571  15 23.984375  15 22.5  C 15 21.640625  14.7786458333333 20.8370535714286  14.3359375 20.0892857142857  C 13.8932291666667 19.3415178571429  13.28125 18.7165178571429  12.5 18.2142857142857  L 12.5 5.35714285714286  C 12.5 4.46428571428571  12.1354166666667 3.70535714285714  11.40625 3.08035714285714  C 10.6770833333333 2.45535714285714  9.79166666666667 2.14285714285714  8.75 2.14285714285714  C 7.70833333333333 2.14285714285714  6.82291666666667 2.45535714285714  6.09375 3.08035714285714  C 5.36458333333333 3.70535714285714  5 4.46428571428571  5 5.35714285714286  L 5 18.2142857142857  C 4.21875 18.7165178571429  3.60677083333333 19.3415178571429  3.1640625 20.0892857142857  C 2.72135416666667 20.8370535714286  2.5 21.640625  2.5 22.5  C 2.5 23.984375  3.10872395833333 25.2483258928571  4.326171875 26.2918526785714  C 5.54361979166667 27.3353794642857  7.01822916666667 27.8571428571429  8.75 27.8571428571429  C 10.4817708333333 27.8571428571429  11.9563802083333 27.3353794642857  13.173828125 26.2918526785714  Z M 15 17.2600446428571  C 16.6666666666667 18.7220982142857  17.5 20.46875  17.5 22.5  C 17.5 24.5647321428571  16.6438802083333 26.3309151785714  14.931640625 27.7985491071429  C 13.2194010416667 29.2661830357143  11.1588541666667 30  8.75 30  C 6.34114583333333 30  4.28059895833333 29.2661830357143  2.568359375 27.7985491071429  C 0.856119791666667 26.3309151785714  0 24.5647321428571  0 22.5  C 0 20.46875  0.833333333333333 18.7220982142857  2.5 17.2600446428571  L 2.5 5.35714285714286  C 2.5 3.87276785714286  3.10872395833333 2.60881696428571  4.326171875 1.56529017857143  C 5.54361979166667 0.521763392857144  7.01822916666667 0  8.75 0  C 10.4817708333333 0  11.9563802083333 0.521763392857144  13.173828125 1.56529017857143  C 14.3912760416667 2.60881696428571  15 3.87276785714286  15 5.35714285714286  L 15 17.2600446428571  Z M 16.25 12.8571428571429  L 20 12.8571428571429  L 20 15  L 16.25 15  L 16.25 12.8571428571429  Z M 16.25 8.57142857142857  L 20 8.57142857142857  L 20 10.7142857142857  L 16.25 10.7142857142857  L 16.25 8.57142857142857  Z M 16.25 4.28571428571429  L 20 4.28571428571429  L 20 6.42857142857143  L 16.25 6.42857142857143  L 16.25 4.28571428571429  Z " fill-rule="nonzero" fill="#ffffff" stroke="none" transform="matrix(1 0 0 1 58 448 )" />
  </g>
</svg>