<?xml version="1.0" encoding="utf-8"?>
<svg version="1.1" xmlns:xlink="http://www.w3.org/1999/xlink" width="25px" height="24px" xmlns="http://www.w3.org/2000/svg">
  <g transform="matrix(1 0 0 1 -58 -400 )">
    <path d="M 7.25350215517241 21.4140625  C 7.59024784482759 21.0234375  7.75862068965517 20.5520833333333  7.75862068965517 20  C 7.75862068965517 19.4479166666667  7.59024784482759 18.9765625  7.25350215517241 18.5859375  C 6.91675646551724 18.1953125  6.51041666666667 18  6.03448275862069 18  C 5.55854885057471 18  5.15220905172414 18.1953125  4.81546336206897 18.5859375  C 4.47871767241379 18.9765625  4.31034482758621 19.4479166666667  4.31034482758621 20  C 4.31034482758621 20.5520833333333  4.47871767241379 21.0234375  4.81546336206897 21.4140625  C 5.15220905172414 21.8046875  5.55854885057471 22  6.03448275862069 22  C 6.51041666666667 22  6.91675646551724 21.8046875  7.25350215517241 21.4140625  Z M 2.58620689655172 11.53125  L 2.58620689655172 12  L 7.75862068965517 12  L 7.75862068965517 8  L 5.63038793103448 8  C 5.50466954022989 8.02083333333333  5.4058908045977 8.06770833333333  5.33405172413793 8.140625  L 2.70743534482759 11.1875  C 2.64457614942529 11.3125  2.60416666666667 11.4270833333333  2.58620689655172 11.53125  Z M 19.3224676724138 21.4140625  C 19.659213362069 21.0234375  19.8275862068966 20.5520833333333  19.8275862068966 20  C 19.8275862068966 19.4479166666667  19.659213362069 18.9765625  19.3224676724138 18.5859375  C 18.9857219827586 18.1953125  18.579382183908 18  18.1034482758621 18  C 17.6275143678161 18  17.2211745689655 18.1953125  16.8844288793103 18.5859375  C 16.5476831896552 18.9765625  16.3793103448276 19.4479166666667  16.3793103448276 20  C 16.3793103448276 20.5520833333333  16.5476831896552 21.0234375  16.8844288793103 21.4140625  C 17.2211745689655 21.8046875  17.6275143678161 22  18.1034482758621 22  C 18.579382183908 22  18.9857219827586 21.8046875  19.3224676724138 21.4140625  Z M 21.4304956896552 9.859375  C 21.5113146551724 9.765625  21.551724137931 9.64583333333333  21.551724137931 9.5  L 21.551724137931 6.5  C 21.551724137931 6.35416666666666  21.5113146551724 6.234375  21.4304956896552 6.140625  C 21.3496767241379 6.046875  21.246408045977 6  21.1206896551724 6  L 18.1034482758621 6  L 18.1034482758621 2.5  C 18.1034482758621 2.35416666666666  18.0630387931034 2.234375  17.9822198275862 2.140625  C 17.901400862069 2.046875  17.798132183908 2  17.6724137931034 2  L 15.0862068965517 2  C 14.9604885057471 2  14.8572198275862 2.046875  14.776400862069 2.140625  C 14.6955818965517 2.234375  14.6551724137931 2.35416666666666  14.6551724137931 2.5  L 14.6551724137931 6  L 11.6379310344828 6  C 11.5122126436782 6  11.4089439655172 6.046875  11.328125 6.140625  C 11.2473060344828 6.234375  11.2068965517241 6.35416666666666  11.2068965517241 6.5  L 11.2068965517241 9.5  C 11.2068965517241 9.64583333333333  11.2473060344828 9.765625  11.328125 9.859375  C 11.4089439655172 9.953125  11.5122126436782 10  11.6379310344828 10  L 14.6551724137931 10  L 14.6551724137931 13.5  C 14.6551724137931 13.6458333333333  14.6955818965517 13.765625  14.776400862069 13.859375  C 14.8572198275862 13.953125  14.9604885057471 14  15.0862068965517 14  L 17.6724137931034 14  C 17.798132183908 14  17.901400862069 13.953125  17.9822198275862 13.859375  C 18.0630387931034 13.765625  18.1034482758621 13.6458333333333  18.1034482758621 13.5  L 18.1034482758621 10  L 21.1206896551724 10  C 21.246408045977 10  21.3496767241379 9.953125  21.4304956896552 9.859375  Z M 24.7440732758621 0.296874999999999  C 24.914691091954 0.494791666666663  25 0.729166666666663  25 0.999999999999999  L 25 19  C 25 19.2708333333333  24.914691091954 19.5052083333333  24.7440732758621 19.703125  C 24.5734554597701 19.9010416666667  24.371408045977 20  24.1379310344828 20  L 21.551724137931 20  C 21.551724137931 21.1041666666667  21.2149784482759 22.046875  20.5414870689655 22.828125  C 19.8679956896552 23.609375  19.055316091954 24  18.1034482758621 24  C 17.1515804597701 24  16.338900862069 23.609375  15.6654094827586 22.828125  C 14.9919181034483 22.046875  14.6551724137931 21.1041666666667  14.6551724137931 20  L 9.48275862068965 20  C 9.48275862068965 21.1041666666667  9.14601293103448 22.046875  8.47252155172414 22.828125  C 7.79903017241379 23.609375  6.98635057471265 24  6.03448275862069 24  C 5.08261494252874 24  4.26993534482759 23.609375  3.59644396551724 22.828125  C 2.9229525862069 22.046875  2.58620689655172 21.1041666666667  2.58620689655172 20  L 0.862068965517241 20  C 0.628591954022989 20  0.426544540229885 19.9010416666667  0.255926724137931 19.703125  C 0.0853089080459771 19.5052083333333  0 19.2708333333333  0 19  C 0 18.7291666666667  0.0853089080459771 18.4947916666667  0.255926724137931 18.296875  C 0.426544540229885 18.0989583333333  0.628591954022989 18  0.862068965517241 18  L 0.862068965517241 11.5  C 0.862068965517241 11.2291666666667  0.920438218390805 10.9270833333333  1.03717672413793 10.59375  C 1.15391522988506 10.2604166666667  1.2975933908046 9.99479166666667  1.46821120689655 9.796875  L 4.13523706896552 6.703125  C 4.30585488505747 6.50520833333333  4.53484195402299 6.33854166666666  4.82219827586207 6.203125  C 5.10955459770115 6.06770833333333  5.36997126436782 6  5.60344827586207 6  L 7.75862068965517 6  L 7.75862068965517 0.999999999999999  C 7.75862068965517 0.729166666666663  7.84392959770115 0.494791666666663  8.0145474137931 0.296874999999999  C 8.18516522988506 0.0989583333333321  8.38721264367816 0  8.62068965517241 0  L 24.1379310344828 0  C 24.371408045977 0  24.5734554597701 0.0989583333333321  24.7440732758621 0.296874999999999  Z " fill-rule="nonzero" fill="#ffffff" stroke="none" transform="matrix(1 0 0 1 58 400 )" />
  </g>
</svg>