<?xml version="1.0" encoding="utf-8"?>
<svg version="1.1" xmlns:xlink="http://www.w3.org/1999/xlink" width="25px" height="30px" xmlns="http://www.w3.org/2000/svg">
  <g transform="matrix(1 0 0 1 -56 -88 )">
    <path d="M 0 17.5186115370763  C 0 14.302000919458  1.27778342436818 11.2171321266708  3.55225667396392 8.94263101604275  L 12.1283422459894 0.36654544401739  L 20.7044278180147 8.94263101604275  C 22.9789010676104 11.2171321266708  24.2566844919786 14.302000919458  24.2566844919786 17.5186115370763  C 24.2566844919786 24.2169100002647  18.8266407091778 29.6469537830657  12.1283422459892 29.6469537830657  C 5.43004378280085 29.6469537830657  0 24.2169100002647  0 17.5186115370763  Z M 12 4.17754011747996  L 5.45775401069514 10.8481283527741  C 3.68848490544211 12.6172159132994  2.69450460914675 15.0167225153957  2.69450460914675 17.5187185113173  C 2.69450460914675 22.728506210723  6.91787200048329 26.9518736020594  12.1276596998887 26.9518736020594  C 12.1296840103621 26.9518736020594  12.131708320795 26.9518729504481  12 26.9518716472259  L 12 4.17754011747996  Z " fill-rule="nonzero" fill="#ffffff" stroke="none" transform="matrix(1 0 0 1 56 88 )" />
  </g>
</svg>