<svg xmlns="http://www.w3.org/2000/svg" width="59.886" height="35.7" viewBox="0 0 59.886 35.7">
  <g id="组_331" data-name="组 331" transform="translate(-1052.239 -1233.795)">
    <path id="路径_641" data-name="路径 641" d="M1082.182,1268.495a3.689,3.689,0,1,0-3.69-3.689,3.7,3.7,0,0,0,3.69,3.689Zm.152-32.982a48.573,48.573,0,0,0-3.179,5.623c-3.05,6.155-4.95,10.594.416,15.891a9.8,9.8,0,0,0,2.6,1.787c.478.044,2.312-1.372,2.571-1.621,2.593-2.5,4.1-5.527,3.16-9.539-.665-2.847-2.625-6.648-4.005-9.27-.493-.938-1.243-2.033-1.561-2.871Zm0,0" fill="none" stroke="#f6f6f6" stroke-linecap="square" stroke-width="2"/>
    <g id="组_330" data-name="组 330">
      <path id="路径_642" data-name="路径 642" d="M1085.912,1259.143c2.18,1.147,5.458.262,7.067-.959,4.4-3.338,4.467-8.609,4.233-13.478a48.743,48.743,0,0,1,.327-8.494c-1.934.614-8,3.938-8.628,5.662-.362,1,4.9,8.765-1.849,16.15-.405.442-.768.628-1.15,1.119Zm-7.46,0c-2.18,1.147-5.459.262-7.067-.959-4.4-3.338-4.468-8.609-4.233-13.478a48.73,48.73,0,0,0-.328-8.494c1.934.614,8,3.938,8.629,5.662.361,1-4.9,8.765,1.849,16.15.4.442.767.628,1.15,1.119Zm0,0" fill="none" stroke="#f6f6f6" stroke-linecap="square" stroke-width="2"/>
      <path id="路径_643" data-name="路径 643" d="M1053.7,1249.346a22.784,22.784,0,0,0,2.663,2.894c4.883,4.9,9.707,17.735,18.267,12.357.871-.548,2.628-1.831,3-2.7-3.353.167-5.207-.254-7.188-2.034-4.629-4.16-3.222-8.485-8.421-10.176a17.974,17.974,0,0,0-8.32-.34Zm56.971,0a22.783,22.783,0,0,1-2.662,2.894c-4.883,4.9-9.708,17.735-18.267,12.357-.871-.548-2.629-1.831-3-2.7,3.354.167,5.207-.254,7.189-2.034,4.628-4.16,3.222-8.485,8.421-10.176a17.969,17.969,0,0,1,8.319-.34Zm0,0" fill="none" stroke="#f6f6f6" stroke-linecap="square" stroke-width="2"/>
    </g>
  </g>
</svg>
