<svg xmlns="http://www.w3.org/2000/svg" width="50.755" height="53.09" viewBox="0 0 50.755 53.09">
  <g id="组_174" data-name="组 174" transform="translate(-97.495 -724.49)">
    <g id="组_157" data-name="组 157" transform="translate(99 726)">
      <path id="路径_15" data-name="路径 15" d="M1450.6,974.973v7.616c-.782,6.11-11.847,11.352-11.847,11.352h-16.538s-6.823-1.959-8.908-4.791l-9.56-12.978a4.608,4.608,0,0,1,.832-6.331,4.943,4.943,0,0,1,6.587.366l5.054,5.464v-4.256h0v-5.425l.049-12.46a4.128,4.128,0,0,1,4.875-4.059,4.276,4.276,0,0,1,3.375,4.281v-5.54a4.287,4.287,0,0,1,3.376-4.282,4.153,4.153,0,0,1,4.922,4.079v2.97a4.289,4.289,0,0,1,3.376-4.283,4.153,4.153,0,0,1,4.922,4.079v5.736a4.287,4.287,0,0,1,3.376-4.282,4.153,4.153,0,0,1,4.922,4.079l1.186,18.663Z" transform="translate(-1402.849 -943.862)" fill="none" stroke="#f08061" stroke-linecap="square" stroke-width="3"/>
    </g>
  </g>
</svg>